<svg width="23" height="18" viewBox="0 0 23 18" fill="none" xmlns="http://www.w3.org/2000/svg">
<path d="M19.5001 17.9864C19.4016 17.9866 19.304 17.9672 19.213 17.9295C19.122 17.8918 19.0394 17.8364 18.9699 17.7666L2.46994 1.26658C2.33522 1.12478 2.26123 0.93597 2.26373 0.740398C2.26624 0.544827 2.34504 0.357971 2.48334 0.21967C2.62164 0.0813687 2.8085 0.00256547 3.00407 6.15386e-05C3.19964 -0.00244239 3.38845 0.0715513 3.53025 0.206266L20.0303 16.7063C20.1351 16.8112 20.2064 16.9448 20.2354 17.0902C20.2643 17.2356 20.2494 17.3864 20.1927 17.5234C20.1359 17.6604 20.0399 17.7775 19.9166 17.8599C19.7933 17.9423 19.6484 17.9864 19.5001 17.9864Z" fill="#E7E7E7"/>
<path d="M10.875 11.7918L8.44736 9.3641C8.43345 9.3503 8.41557 9.34121 8.39623 9.3381C8.37688 9.33499 8.35705 9.33802 8.33952 9.34676C8.32199 9.3555 8.30763 9.36952 8.29847 9.38683C8.28931 9.40415 8.28581 9.4239 8.28846 9.44332C8.38646 10.0731 8.68219 10.6555 9.13291 11.1062C9.58362 11.5569 10.166 11.8527 10.7958 11.9507C10.8152 11.9533 10.835 11.9498 10.8523 11.9406C10.8696 11.9315 10.8836 11.9171 10.8924 11.8996C10.9011 11.8821 10.9041 11.8622 10.901 11.8429C10.8979 11.8235 10.8888 11.8057 10.875 11.7918Z" fill="#E7E7E7"/>
<path d="M11.6251 6.18149L14.0565 8.61196C14.0704 8.62594 14.0883 8.63521 14.1077 8.63842C14.1272 8.64164 14.1471 8.63865 14.1648 8.62988C14.1824 8.62111 14.1968 8.60701 14.206 8.58957C14.2152 8.57213 14.2186 8.55224 14.2159 8.53274C14.1181 7.90206 13.8222 7.31885 13.3709 6.86757C12.9196 6.41629 12.3364 6.12034 11.7057 6.02258C11.6862 6.01957 11.6662 6.0228 11.6486 6.03182C11.631 6.04085 11.6167 6.05519 11.6078 6.07282C11.5989 6.09044 11.5957 6.11044 11.5988 6.12995C11.6019 6.14947 11.6111 6.16751 11.6251 6.18149Z" fill="#E7E7E7"/>
<path d="M22.2657 9.80008C22.4209 9.5565 22.503 9.27352 22.5021 8.9847C22.5013 8.69589 22.4176 8.41338 22.2611 8.1707C21.0207 6.25258 19.4115 4.6232 17.6078 3.45836C15.6095 2.16836 13.4064 1.48633 11.2351 1.48633C10.0905 1.4879 8.95363 1.67453 7.86856 2.03898C7.83819 2.04909 7.81091 2.06679 7.78932 2.09042C7.76773 2.11404 7.75255 2.1428 7.74522 2.17396C7.73789 2.20511 7.73865 2.23762 7.74744 2.2684C7.75623 2.29917 7.77276 2.32718 7.79543 2.34977L10.0098 4.56414C10.0328 4.58719 10.0614 4.60384 10.0928 4.61247C10.1242 4.62111 10.1573 4.62141 10.1889 4.61336C10.9395 4.43044 11.7245 4.44385 12.4684 4.65228C13.2123 4.86071 13.89 5.25715 14.4363 5.80343C14.9826 6.34971 15.379 7.02742 15.5875 7.77133C15.7959 8.51523 15.8093 9.30027 15.6264 10.0509C15.6184 10.0823 15.6188 10.1154 15.6274 10.1467C15.636 10.178 15.6526 10.2065 15.6756 10.2295L18.8607 13.417C18.8939 13.4501 18.9383 13.4697 18.9851 13.4718C19.032 13.4739 19.0779 13.4583 19.1139 13.4282C20.3399 12.3832 21.4024 11.1602 22.2657 9.80008Z" fill="#E7E7E7"/>
<path d="M11.25 13.4865C10.5688 13.4866 9.89645 13.3319 9.2837 13.0343C8.67094 12.7367 8.13375 12.3038 7.71263 11.7684C7.29151 11.2329 6.99745 10.6089 6.85262 9.94322C6.70779 9.27758 6.71598 8.58775 6.87656 7.92574C6.88452 7.89425 6.88417 7.86124 6.87555 7.82994C6.86692 7.79863 6.85031 7.7701 6.82734 7.74714L3.69422 4.61261C3.66099 4.57935 3.61649 4.55978 3.56952 4.55779C3.52255 4.55579 3.47655 4.57151 3.44062 4.60183C2.29734 5.5773 1.2375 6.76417 0.268591 8.15121C0.0989903 8.39463 0.00558437 8.68298 0.00024264 8.97961C-0.00509909 9.27625 0.0778646 9.56777 0.238591 9.81714C1.47656 11.7545 3.06937 13.3862 4.84547 14.5351C6.84656 15.8303 8.99625 16.4865 11.235 16.4865C12.3912 16.4834 13.5399 16.3008 14.64 15.9451C14.6706 15.9353 14.6982 15.9178 14.7202 15.8943C14.7421 15.8707 14.7576 15.8419 14.7652 15.8107C14.7727 15.7794 14.7722 15.7467 14.7634 15.7158C14.7547 15.6848 14.7382 15.6566 14.7155 15.6339L12.4903 13.4092C12.4674 13.3862 12.4388 13.3696 12.4075 13.361C12.3762 13.3523 12.3432 13.352 12.3117 13.36C11.9641 13.4442 11.6077 13.4867 11.25 13.4865Z" fill="#E7E7E7"/>
</svg>
