<svg width="23" height="25" viewBox="0 0 23 25" fill="none" xmlns="http://www.w3.org/2000/svg">
<path d="M21.2246 5.63428C21.2573 5.61525 21.2843 5.588 21.3031 5.55525C21.3219 5.5225 21.3318 5.4854 21.3318 5.44763C21.3318 5.40987 21.3219 5.37276 21.3031 5.34002C21.2843 5.30727 21.2573 5.28002 21.2246 5.26099L12.9735 0.467178C12.4455 0.16116 11.8461 0 11.2359 0C10.6257 0 10.0263 0.16116 9.49833 0.467178L1.2488 5.26099C1.21618 5.28002 1.18911 5.30727 1.17031 5.34002C1.1515 5.37276 1.1416 5.40987 1.1416 5.44763C1.1416 5.4854 1.1515 5.5225 1.17031 5.55525C1.18911 5.588 1.21618 5.61525 1.2488 5.63428L11.1281 11.4458C11.1614 11.4654 11.1992 11.4757 11.2378 11.4757C11.2764 11.4757 11.3142 11.4654 11.3475 11.4458L21.2246 5.63428Z" fill="#2E2E2E"/>
<path d="M0.32413 7.10415C0.291178 7.08512 0.253787 7.07513 0.215737 7.0752C0.177687 7.07526 0.140328 7.08536 0.107438 7.1045C0.0745471 7.12363 0.0472916 7.1511 0.028427 7.18415C0.00956241 7.21719 -0.000242272 7.25463 4.54742e-06 7.29268V16.6864C0.000820103 17.1391 0.12013 17.5836 0.346069 17.9759C0.572008 18.3682 0.896703 18.6944 1.28786 18.9223L10.0479 24.1747C10.0807 24.1937 10.118 24.2037 10.1559 24.2037C10.1938 24.2037 10.231 24.1937 10.2639 24.1748C10.2967 24.1559 10.324 24.1286 10.343 24.0958C10.362 24.063 10.372 24.0257 10.372 23.9878V13.0891C10.372 13.0512 10.362 13.014 10.343 12.9812C10.324 12.9484 10.2968 12.9212 10.264 12.9022L0.32413 7.10415Z" fill="#2E2E2E"/>
<path d="M12.1006 13.1267V23.9849C12.1006 24.0228 12.1106 24.0601 12.1296 24.0929C12.1486 24.1257 12.1759 24.153 12.2087 24.1719C12.2416 24.1908 12.2788 24.2008 12.3167 24.2008C12.3546 24.2008 12.3919 24.1908 12.4247 24.1718L21.1842 18.9194C21.5751 18.6918 21.8996 18.366 22.1256 17.9743C22.3516 17.5825 22.4713 17.1384 22.4726 16.6862V7.29247C22.4725 7.25461 22.4624 7.21744 22.4434 7.1847C22.4243 7.15195 22.3971 7.12478 22.3642 7.10591C22.3314 7.08703 22.2942 7.07711 22.2563 7.07715C22.2185 7.07718 22.1813 7.08717 22.1485 7.1061L12.2086 12.9404C12.1759 12.9593 12.1487 12.9864 12.1297 13.0191C12.1108 13.0518 12.1007 13.0889 12.1006 13.1267Z" fill="#2E2E2E"/>
</svg>
