<svg width="224" height="96" viewBox="0 0 224 96" fill="none" xmlns="http://www.w3.org/2000/svg">
<path d="M107.581 91.7535H100.641L103.864 76.6018H109.765C112.38 76.6018 114.028 77.9458 114.028 79.8988C114.028 81.8519 112.6 83.3639 110.647 83.8259L110.637 83.8889C112.285 84.1829 113.304 85.4114 113.304 86.9339C113.304 89.7479 110.973 91.7535 107.581 91.7535ZM106.132 78.6494L105.229 82.8914H107.949C109.933 82.8914 111.277 81.8729 111.277 80.4343C111.277 79.2688 110.406 78.6494 108.768 78.6494H106.132ZM103.791 89.601H107.172C109.177 89.601 110.532 88.4879 110.532 86.9444C110.532 85.6214 109.608 84.9179 107.812 84.9179H104.799L103.791 89.601Z" fill="#1497D9"/>
<path d="M117.787 85.0334H123.027C123.037 84.9494 123.037 84.8234 123.037 84.7184C123.037 83.5109 122.323 82.4189 120.748 82.4189C119.247 82.4189 118.176 83.5424 117.787 85.0334ZM119.856 91.9845C116.769 91.9845 115.047 89.9789 115.047 87.0074C115.047 83.2799 117.409 80.3713 120.822 80.3713C123.667 80.3713 125.505 82.2089 125.505 85.1174C125.505 85.6319 125.473 86.2619 125.379 86.7764H117.504C117.493 86.8919 117.493 87.0179 117.493 87.1334C117.493 88.8239 118.438 89.9159 119.929 89.9159C121.231 89.9159 122.155 89.2545 122.565 88.2464H125.011C124.434 90.4095 122.428 91.9845 119.856 91.9845Z" fill="#1497D9"/>
<path d="M126.04 95.8275C125.704 95.8275 124.864 95.7645 124.696 95.712L125.095 93.6015C125.253 93.6645 125.83 93.7065 126.124 93.7065C126.985 93.7065 127.71 93.3285 128.182 92.184C128.182 92.163 128.424 91.659 128.424 91.638L126.838 80.6024H129.421L130.314 89.3594H130.366L134.787 80.6024H137.569L131.017 92.4675C129.631 95.019 128.193 95.8275 126.04 95.8275Z" fill="#1497D9"/>
<path d="M141.885 89.8215C143.817 89.8215 145.234 87.8999 145.234 85.4009C145.234 83.6684 144.31 82.5344 142.872 82.5344C140.929 82.5344 139.522 84.4349 139.522 86.9549C139.522 88.6874 140.446 89.8215 141.885 89.8215ZM142.945 80.3713C145.906 80.3713 147.849 82.3454 147.849 85.3274C147.849 89.1179 145.287 91.9845 141.822 91.9845C138.861 91.9845 136.918 89.9999 136.918 87.0179C136.918 83.2379 139.48 80.3713 142.945 80.3713Z" fill="#1497D9"/>
<path d="M148.384 91.7535L150.747 80.6024H153.215L152.857 82.3139H152.91C153.666 81.1064 154.968 80.3713 156.533 80.3713C158.538 80.3713 160.008 81.7049 160.008 83.6054C160.008 84.0044 159.956 84.4874 159.861 84.9704L158.423 91.7535H155.861L157.205 85.4009C157.289 85.0124 157.32 84.6764 157.32 84.4139C157.32 83.2799 156.491 82.5554 155.252 82.5554C153.855 82.5554 152.7 83.5529 152.364 85.1174L150.957 91.7535H148.384Z" fill="#1497D9"/>
<path d="M165.237 91.932C162.78 91.932 161.237 90.1365 161.237 87.3329C161.237 83.3744 163.652 80.4133 166.812 80.4133C168.534 80.4133 169.889 81.3899 170.246 82.7129H170.309L171.632 76.6018H174.194L170.97 91.7535H168.429L168.786 90.0524H168.734C168.009 91.1864 166.707 91.932 165.237 91.932ZM166.182 89.7795C168.104 89.7795 169.584 87.8159 169.584 85.2854C169.584 83.7104 168.629 82.6079 167.148 82.6079C165.29 82.6079 163.851 84.4769 163.851 87.0284C163.851 88.7189 164.733 89.7795 166.182 89.7795Z" fill="#1497D9"/>
<path d="M181.607 76.6018H186.626C190.49 76.6018 192.915 78.8384 192.915 82.6394C192.915 88.0049 189.629 91.7535 184.809 91.7535H178.404L181.607 76.6018ZM183.875 78.9223L181.617 89.4224H184.505C187.781 89.4224 190.133 86.8184 190.133 82.9859C190.133 80.3714 188.715 78.9223 186.059 78.9223H183.875Z" fill="#1497D9"/>
<path d="M193.199 91.7535L195.572 80.6024H198.05L197.735 82.1249H197.787C198.417 81.1064 199.436 80.4343 200.769 80.4343C201.347 80.4343 201.819 80.5499 202.134 80.6969L201.62 83.0909C201.284 82.9334 200.707 82.7969 200.14 82.7969C198.438 82.7969 197.483 83.7419 197.084 85.5689L195.771 91.7535H193.199Z" fill="#1497D9"/>
<path d="M201.914 95.8275C201.578 95.8275 200.738 95.7645 200.57 95.712L200.969 93.6015C201.126 93.6645 201.704 93.7065 201.998 93.7065C202.859 93.7065 203.583 93.3285 204.056 92.184C204.056 92.163 204.298 91.659 204.298 91.638L202.712 80.6024H205.295L206.188 89.3594H206.24L210.661 80.6024H213.443L206.891 92.4675C205.505 95.019 204.066 95.8275 201.914 95.8275Z" fill="#1497D9"/>
<path d="M213.275 91.869C212.435 91.869 211.763 91.1865 211.763 90.3255C211.763 89.475 212.435 88.7924 213.275 88.7924C214.115 88.7924 214.787 89.475 214.787 90.3255C214.787 91.1865 214.115 91.869 213.275 91.869Z" fill="#1497D9"/>
<path d="M92.2263 63.6029C86.9296 59.6098 83.8816 53.2013 83.8816 44.8492C83.8816 38.2174 85.5352 32.2626 88.5248 27.4168L85.7214 0C76.2961 0.106139 66.8746 0.212305 57.453 0.318444C55.0364 9.45372 49.3236 26.1322 35.2771 42.3165C23.3221 56.089 10.3524 63.72 2.25957 67.6801C16.496 67.4751 30.736 67.2702 44.9724 67.0652L51.5102 53.7283H71.8135L72.4158 67.0652H92.5804L92.2263 63.6029ZM58.3254 39.8314L69.7729 16.4515H70.1927L71.2112 39.8314H58.3254Z" fill="#1497D9"/>
<path d="M130.672 44.5784L135.22 23.325C131.3 17.5715 124.466 14.197 116.023 14.197C98.9138 14.197 87.5393 26.7873 87.5393 44.0331C87.5393 58.5375 96.9134 67.0652 111.288 67.0652C117.293 67.0652 122.524 65.6415 126.704 63.1161L129.635 49.4132H120.071C119.206 52.3339 116.158 54.3395 112.201 54.3395C106.784 54.3395 103.601 50.6905 103.601 46.0387C103.601 45.5812 103.645 45.0798 103.736 44.5784H130.672ZM115.202 26.6958C119.524 26.6958 122.528 29.4334 122.528 33.2654C122.528 33.7668 122.48 34.4989 122.389 34.7258H105.375C106.558 29.9349 110.515 26.6958 115.202 26.6958Z" fill="#1497D9"/>
<path d="M140.057 14.951H158.276L156.768 22.5052H157.144C159.499 17.6447 164.113 14.197 169.716 14.197C172.684 14.197 174.801 14.6215 176.871 15.5658L173.341 31.7575C170.939 30.6266 168.679 29.8214 165.525 29.8214C159.36 29.8214 154.885 33.2691 153.333 40.4426L147.591 67.0652H128.901L140.061 14.951H140.057Z" fill="#1497D9"/>
<path d="M170.614 53.9113C170.614 43.2681 179.561 36.574 194.115 36.2483L205.285 36.0177L205.888 33.0422C206.026 32.2516 206.074 31.9259 206.074 31.6001C206.074 29.2285 203.57 27.651 199.861 27.651C196.429 27.651 193.881 29.0455 192.954 31.7429H176.404C178.444 21.0082 188.085 14.4532 201.157 14.4532C214.229 14.4532 223.964 20.774 223.964 30.1179C223.964 31.4208 223.778 33.2325 223.548 34.2536L216.594 67.0652H198.747L200.047 61.0226H199.675C197.17 65.0669 191.932 67.8082 185.489 67.8082C177.006 67.8082 170.61 61.9047 170.61 53.9113H170.614ZM202.46 49.2631L203.153 45.9618L195.225 46.1485C191.052 46.24 188.271 48.2383 188.271 51.17C188.271 53.6807 190.636 55.3533 194.064 55.3533C198.098 55.3533 201.712 52.7511 202.456 49.2668L202.46 49.2631Z" fill="#1497D9"/>
<path d="M0 72.3319H214.787L216.401 69.4552H1.60981L0 72.3319Z" fill="#1497D9"/>
</svg>
