<svg width="16" height="16" viewBox="0 0 16 16" fill="none" xmlns="http://www.w3.org/2000/svg">
<path d="M16.0083 8.00415C16.0083 3.58378 12.4245 0 8.00415 0C3.58378 0 0 3.58378 0 8.00415C0 12.4245 3.58378 16.0083 8.00415 16.0083C12.4245 16.0083 16.0083 12.4245 16.0083 8.00415ZM7.82521 11.5198C7.7678 11.4629 7.72216 11.3952 7.69091 11.3206C7.65966 11.246 7.64341 11.166 7.64309 11.0851C7.64277 11.0043 7.65838 10.9241 7.68904 10.8493C7.71969 10.7744 7.76479 10.7064 7.82175 10.649L9.8351 8.61985H4.69474C4.53145 8.61985 4.37484 8.55499 4.25937 8.43952C4.14391 8.32405 4.07904 8.16745 4.07904 8.00415C4.07904 7.84086 4.14391 7.68425 4.25937 7.56878C4.37484 7.45332 4.53145 7.38845 4.69474 7.38845H9.8351L7.82175 5.35932C7.7648 5.30186 7.71972 5.23375 7.68909 5.15887C7.65846 5.08399 7.64288 5.00381 7.64324 4.92291C7.64359 4.84201 7.65988 4.76197 7.69117 4.68737C7.72246 4.61276 7.76814 4.54505 7.8256 4.4881C7.88305 4.43114 7.95117 4.38607 8.02605 4.35544C8.10093 4.32481 8.1811 4.30923 8.262 4.30958C8.42539 4.31031 8.5818 4.3759 8.69682 4.49194L11.7519 7.57046C11.8663 7.68579 11.9305 7.84168 11.9305 8.00415C11.9305 8.16662 11.8663 8.32251 11.7519 8.43784L8.69682 11.5164C8.63986 11.5739 8.57211 11.6196 8.49745 11.6509C8.42279 11.6823 8.34269 11.6985 8.26173 11.6989C8.18077 11.6992 8.10055 11.6835 8.02564 11.6528C7.95074 11.6221 7.88263 11.5769 7.82521 11.5198Z" fill="#1497D9"/>
</svg>
