<svg width="381" height="342" viewBox="0 0 381 342" fill="none" xmlns="http://www.w3.org/2000/svg">
<path d="M358.108 182.033H289.651V109.218H358.108C370.709 109.218 380.929 99.0248 380.929 86.4684C380.929 73.9055 370.709 63.7119 358.108 63.7119H289.651V59.1606C289.651 26.5398 263.034 0.000214845 230.323 0.000214845H221.194C188.477 0.000214845 161.86 26.5398 161.86 59.1606V232.097C161.86 264.718 188.477 291.257 221.194 291.257H230.323C263.034 291.257 289.651 264.718 289.651 232.097V227.546H358.108C370.709 227.546 380.929 217.352 380.929 204.789C380.929 192.233 370.709 182.033 358.108 182.033ZM118.503 37.5532C81.15 43.1246 52.3251 75.0159 52.3251 113.77V127.424H38.6325C5.92126 127.424 -20.6958 153.963 -20.6958 186.584V341.322C-20.6958 353.878 -10.4763 364.072 2.12529 364.072C14.7204 364.072 24.9399 353.878 24.9399 341.322V186.584C24.9399 179.07 31.0922 172.937 38.6325 172.937H52.3251V177.481C52.3251 216.242 81.15 248.133 118.503 253.704C117.025 246.732 116.224 239.502 116.224 232.097V59.1606C116.224 51.7494 117.025 44.5254 118.503 37.5532Z" fill="#1497D9"/>
</svg>
